<?xml version="1.0" encoding="UTF-8" standalone="no"?>
<!-- Created with Inkscape (http://www.inkscape.org/) -->

<svg
   xmlns:dc="http://purl.org/dc/elements/1.1/"
   xmlns:cc="http://creativecommons.org/ns#"
   xmlns:rdf="http://www.w3.org/1999/02/22-rdf-syntax-ns#"
   xmlns:svg="http://www.w3.org/2000/svg"
   xmlns="http://www.w3.org/2000/svg"
   xmlns:sodipodi="http://sodipodi.sourceforge.net/DTD/sodipodi-0.dtd"
   xmlns:inkscape="http://www.inkscape.org/namespaces/inkscape"
   width="210mm"
   height="297mm"
   viewBox="0 0 210 297"
   version="1.1"
   id="svg4594"
   inkscape:version="0.92.1 r15371"
   sodipodi:docname="MST-4.svg">
  <defs
     id="defs4588" />
  <sodipodi:namedview
     id="base"
     pagecolor="#ffffff"
     bordercolor="#666666"
     borderopacity="1.0"
     inkscape:pageopacity="0.0"
     inkscape:pageshadow="2"
     inkscape:zoom="0.98994949"
     inkscape:cx="38.332647"
     inkscape:cy="560"
     inkscape:document-units="mm"
     inkscape:current-layer="layer1"
     showgrid="false"
     inkscape:measure-start="0,0"
     inkscape:measure-end="0,0"
     inkscape:window-width="3840"
     inkscape:window-height="2104"
     inkscape:window-x="-16"
     inkscape:window-y="-16"
     inkscape:window-maximized="1" />
  <metadata
     id="metadata4591">
    <rdf:RDF>
      <cc:Work
         rdf:about="">
        <dc:format>image/svg+xml</dc:format>
        <dc:type
           rdf:resource="http://purl.org/dc/dcmitype/StillImage" />
        <dc:title></dc:title>
      </cc:Work>
    </rdf:RDF>
  </metadata>
  <g
     inkscape:label="Layer 1"
     inkscape:groupmode="layer"
     id="layer1">
    <g
       id="g4626"
       transform="translate(-3.7417699)">
      <path
         style="fill:#fcfcfc;stroke-width:0.26458335"
         d="M 42.084896,148.39814 V 0.36376429 h 64.822914 64.82292 V 148.39814 296.43252 H 106.90781 42.084896 Z"
         id="path4632"
         inkscape:connector-curvature="0" />
      <path
         style="fill:#0a0efe;stroke-width:0.26458335"
         d="m 100.95469,287.67259 c -4.243172,-1.04148 -8.407658,-3.59897 -11.446836,-7.02974 -1.480593,-1.67134 -2.827467,-4.25617 -18.173986,-34.87804 -9.116186,-18.1901 -17.16106,-34.20401 -17.877497,-35.58646 -1.613043,-3.11255 -2.537429,-6.28666 -2.909073,-9.98905 -0.199875,-1.99119 -0.261822,-30.63415 -0.206715,-95.5797 l 0.07869,-92.73646 h 10.054166 10.054167 l 0.132291,93.6625 0.132292,93.66251 0.988512,1.71979 c 0.543682,0.94588 3.2814,6.27393 6.083819,11.8401 l 5.095303,10.12032 h 23.344977 23.34498 l 0.37422,-0.59532 c 0.20583,-0.32742 2.85771,-5.23875 5.89308,-10.91406 l 5.51886,-10.31875 0.13229,-94.58855 0.13229,-94.58854 h 10.31875 10.31875 v 94.45625 c 0,91.16454 -0.0172,94.53463 -0.49299,96.70521 -0.66025,3.01198 -1.81517,6.13923 -3.04367,8.2415 -0.55517,0.95005 -7.5313,14.99227 -15.5025,31.20492 -19.21901,39.08962 -17.82533,36.41238 -20.24188,38.88428 -3.2575,3.33213 -7.25119,5.58175 -11.44166,6.44501 -2.89069,0.5955 -7.93907,0.53028 -10.66063,-0.13772 z m 1.05044,-96.08122 c -0.068,-0.1819 -0.15352,-4.73604 -0.19013,-10.12031 l -0.0666,-9.78958 -4.222047,-0.0731 c -2.971403,-0.0515 -4.282967,-0.16903 -4.427718,-0.39687 -0.24231,-0.38139 -0.286887,-5.51389 -0.05318,-6.12292 0.143476,-0.3739 1.568077,-0.41852 13.361455,-0.41852 h 13.20086 v 3.43303 3.43303 l -4.29948,0.0727 -4.29948,0.0727 -0.14027,10.05417 c -0.0771,5.52979 -0.16645,10.08393 -0.19844,10.12031 -0.032,0.0364 -1.9669,0.0661 -4.2998,0.0661 -3.15102,0 -4.27341,-0.085 -4.36521,-0.33073 z m 0.60511,-58.40011 c -2.17339,-0.39286 -4.685462,-1.35092 -5.809364,-2.2156 -1.511575,-1.16292 -2.607273,-3.2152 -2.789497,-5.22479 -0.110479,-1.21838 -0.05563,-1.67228 0.223441,-1.84898 0.414113,-0.2622 6.839,-0.33226 7.49198,-0.0817 0.23018,0.0883 0.41851,0.45742 0.41851,0.82021 0,0.40084 0.36266,1.02226 0.92443,1.58404 l 0.92443,0.92442 2.64062,-0.091 c 2.28211,-0.0786 2.71812,-0.16854 3.21134,-0.66223 0.75144,-0.75213 0.50539,-1.78976 -0.55435,-2.33777 -0.43085,-0.2228 -1.82811,-0.64493 -3.10502,-0.93807 -6.57422,-1.50926 -7.929099,-2.04304 -9.812273,-3.86579 -1.661017,-1.60772 -2.317613,-3.52874 -2.079104,-6.08289 0.471633,-5.05061 4.70862,-7.78297 12.083257,-7.79228 6.69144,-0.008 10.99662,2.33877 11.92867,6.50363 0.51105,2.2836 0.56505,2.25212 -3.86407,2.25212 h -3.85826 l -0.38476,-0.92084 c -0.47813,-1.14433 -1.37869,-1.75322 -2.83597,-1.91748 -2.4338,-0.27432 -4.59965,0.99441 -3.90698,2.28867 0.45277,0.84603 1.54656,1.27762 5.35199,2.11179 4.43219,0.97156 6.2204,1.64244 7.88494,2.95818 2.25003,1.77855 3.01285,4.18782 2.38294,7.52622 -0.58359,3.09289 -2.46632,5.12388 -6.02104,6.49519 -1.2669,0.48873 -2.15286,0.59855 -5.35454,0.66369 -2.11005,0.0429 -4.40115,-0.024 -5.09132,-0.14876 z M 89.87314,76.416733 c -0.244615,-0.637461 -0.188857,-26.125888 0.058,-26.514826 0.164316,-0.258887 1.602946,-0.3195 6.2798,-0.264583 l 6.06666,0.07123 1.91181,7.256391 c 1.0515,3.991017 2.02194,7.366519 2.15653,7.501115 0.29443,0.294428 0.17173,0.684818 2.0188,-6.423131 0.81302,-3.128698 1.65523,-6.315888 1.87158,-7.082642 l 0.39337,-1.3941 5.87812,0.07118 5.87813,0.07118 v 13.49375 13.493751 h -4.23334 -4.23333 l 0.0312,-8.021659 c 0.0172,-4.411912 -0.0603,-7.924256 -0.17211,-7.805209 -0.11185,0.119047 -1.12128,3.609732 -2.24319,7.757076 -1.12191,4.147343 -2.16037,7.689453 -2.30768,7.871354 -0.18679,0.230637 -1.20913,0.330729 -3.37805,0.330729 -2.17052,0 -3.19025,-0.09992 -3.37509,-0.330729 -0.1457,-0.181901 -1.1768,-3.653332 -2.29136,-7.71429 -1.114571,-4.060957 -2.117559,-7.546295 -2.228869,-7.745198 -0.11131,-0.198901 -0.196104,3.242765 -0.188431,7.648144 l 0.01395,8.009782 -3.87165,0.07304 c -3.356174,0.06332 -3.893386,0.01641 -4.034896,-0.352366 z"
         id="path4630"
         inkscape:connector-curvature="0" />
      <path
         style="fill:#030303;stroke-width:0.26458335"
         d="m 101.853,287.84838 c -4.266827,-0.8891 -8.122955,-3.02344 -11.416477,-6.31894 L 88.102551,279.1941 71.245286,245.58226 c -9.271496,-18.48651 -17.288917,-34.43207 -17.81649,-35.43459 -1.008065,-1.91555 -1.795191,-4.15706 -2.544275,-7.24536 -0.417464,-1.7211 -0.455063,-8.50407 -0.531652,-95.91146 -0.04533,-51.732657 -0.01654,-94.328697 0.06397,-94.657866 l 0.146395,-0.598488 9.982182,0.06932 9.982183,0.06932 0.132291,93.662504 c 0.103778,73.47522 0.202663,93.82064 0.45879,94.39621 0.179573,0.40353 0.76594,1.41556 1.303036,2.24895 0.537099,0.8334 3.087902,5.81434 5.668455,11.06877 2.674315,5.44534 4.88234,9.62658 5.134747,9.72344 0.619461,0.23771 45.973252,0.20584 46.335722,-0.0326 0.16255,-0.10691 2.90098,-5.07595 6.08541,-11.0423 l 5.78988,-10.84792 0.13229,-94.58855 0.13229,-94.588544 10.24678,-0.06925 10.24679,-0.06925 0.14637,0.598414 c 0.0805,0.329128 0.10896,42.925134 0.0632,94.65779 -0.0792,89.59651 -0.10581,94.1532 -0.56063,96.03668 -0.81126,3.35954 -1.13278,4.10875 -5.73715,13.36853 -2.46022,4.94771 -10.28747,20.82321 -17.39389,35.2789 -8.64432,17.58403 -13.34084,26.85062 -14.18996,27.99785 -2.47229,3.34029 -7.17167,6.50679 -11.53906,7.7752 -2.53184,0.73533 -8.49346,0.94978 -11.13,0.40037 z"
         id="path4628"
         inkscape:connector-curvature="0" />
    </g>
  </g>
</svg>
