<?xml version="1.0" encoding="UTF-8" standalone="no"?>
<!-- Created with Inkscape (http://www.inkscape.org/) -->

<svg
   xmlns:dc="http://purl.org/dc/elements/1.1/"
   xmlns:cc="http://creativecommons.org/ns#"
   xmlns:rdf="http://www.w3.org/1999/02/22-rdf-syntax-ns#"
   xmlns:svg="http://www.w3.org/2000/svg"
   xmlns="http://www.w3.org/2000/svg"
   xmlns:sodipodi="http://sodipodi.sourceforge.net/DTD/sodipodi-0.dtd"
   xmlns:inkscape="http://www.inkscape.org/namespaces/inkscape"
   version="1.1"
   id="svg3680"
   width="1600"
   height="1600"
   viewBox="0 0 1600 1600"
   sodipodi:docname="MST-1-2.svg"
   inkscape:version="0.92.1 r15371">
  <metadata
     id="metadata3686">
    <rdf:RDF>
      <cc:Work
         rdf:about="">
        <dc:format>image/svg+xml</dc:format>
        <dc:type
           rdf:resource="http://purl.org/dc/dcmitype/StillImage" />
        <dc:title></dc:title>
      </cc:Work>
    </rdf:RDF>
  </metadata>
  <defs
     id="defs3684">
    <filter
       style="color-interpolation-filters:sRGB;"
       inkscape:label="Invert"
       id="filter4548">
      <feColorMatrix
         values="1 0 0 0 0 0 1 0 0 0 0 0 1 0 0 -0.21 -0.72 -0.07 2 0 "
         result="fbSourceGraphic"
         id="feColorMatrix4546" />
      <feColorMatrix
         result="fbSourceGraphicAlpha"
         in="fbSourceGraphic"
         values="0 0 0 -1 0 0 0 0 -1 0 0 0 0 -1 0 0 0 0 1 0"
         id="feColorMatrix4550" />
      <feColorMatrix
         id="feColorMatrix4552"
         values="0 0 1 0 0 0 1 0 0 0 1 0 0 0 0 -0.21 -0.72 -0.07 2 0 "
         result="fbSourceGraphic"
         in="fbSourceGraphic" />
      <feColorMatrix
         result="fbSourceGraphicAlpha"
         in="fbSourceGraphic"
         values="0 0 0 -1 0 0 0 0 -1 0 0 0 0 -1 0 0 0 0 1 0"
         id="feColorMatrix4554" />
      <feColorMatrix
         id="feColorMatrix4556"
         values="0 1 0 0 0 1 0 0 0 0 0 0 1 0 0 -0.21 -0.72 -0.07 2 0 "
         result="fbSourceGraphic"
         in="fbSourceGraphic" />
      <feColorMatrix
         result="fbSourceGraphicAlpha"
         in="fbSourceGraphic"
         values="0 0 0 -1 0 0 0 0 -1 0 0 0 0 -1 0 0 0 0 1 0"
         id="feColorMatrix4558" />
      <feColorMatrix
         id="feColorMatrix4560"
         values="1 0 0 0 0 0 0 1 0 0 0 1 0 0 0 -0.21 -0.72 -0.07 2 0 "
         result="color2"
         in="fbSourceGraphic" />
    </filter>
  </defs>
  <sodipodi:namedview
     pagecolor="#ffffff"
     bordercolor="#666666"
     borderopacity="1"
     objecttolerance="10"
     gridtolerance="10"
     guidetolerance="10"
     inkscape:pageopacity="0"
     inkscape:pageshadow="2"
     inkscape:window-width="3840"
     inkscape:window-height="2104"
     id="namedview3682"
     showgrid="false"
     inkscape:zoom="0.78533047"
     inkscape:cx="800"
     inkscape:cy="800"
     inkscape:window-x="-16"
     inkscape:window-y="-16"
     inkscape:window-maximized="1"
     inkscape:current-layer="svg3680" />
  <g
     id="g4580"
     transform="translate(-4.0194147e-6,2.5466956)">
    <path
       style="fill:#f8fbf7;stroke-width:1.33333337"
       d="M 0.17995286,798.72665 V -1.2733493 H 800.17995 1600.18 V 798.72665 1598.7267 H 800.17995 0.17995286 Z"
       id="path4586"
       inkscape:connector-curvature="0" />
    <path
       style="fill:#efea00;stroke-width:1.33333337"
       d="M 0.17995286,798.72665 V -1.2733493 H 800.17995 1600.18 V 798.72665 1598.7267 H 800.17995 0.17995286 Z M 586.17995,1498.188 c 26.93827,-7.504 53.96027,-27.4676 66.50543,-49.1337 1.80281,-3.1135 38.77107,-77.8426 82.15167,-166.0646 43.38061,-88.222 80.89793,-163.822 83.37182,-168 6.43804,-10.8728 12.539,-26.9191 15.80863,-41.5786 l 2.82912,-12.6844 v -476.00005 -476 h -52 -52 l -0.66667,476.66667 -0.66666,476.66668 -27.81854,52 c -15.3002,28.6 -28.66617,53.3532 -29.70214,55.0072 l -1.88362,3.0073 -117.63118,-0.3406 -117.63119,-0.3406 -26,-51.3952 c -14.3,-28.2673 -27.22925,-53.1673 -28.73168,-55.3333 -1.50241,-2.166 -3.60241,-5.7381 -4.66667,-7.9381 -1.67602,-3.4647 -2.02421,-67.16856 -2.60165,-476.00005 l -0.66667,-472 h -50.66666 -50.66667 v 476 c 0,459.06965 0.0881,476.40315 2.47948,487.33335 3.46825,15.8529 9.13737,30.7427 16.75245,44 3.58048,6.2333 43.21583,84.8333 88.07855,174.6667 80.34905,160.8913 81.70708,163.4869 90.83023,173.6049 9.73894,10.8011 25.68762,22.4124 38.52596,28.0488 6.22041,2.7309 15.41504,5.5001 27.33333,8.2319 6.36797,1.4597 41.60715,-0.272 49.33333,-2.4243 z"
       id="path4584"
       inkscape:connector-curvature="0" />
    <path
       style="fill:#000000;stroke-width:1.33333337"
       d="M 0.17995286,798.72665 V -1.2733493 H 800.17995 1600.18 V 798.72665 1598.7267 H 800.17995 0.17995286 Z M 580.21951,1499.3851 c 29.86254,-6.2819 58.46199,-26.1454 72.46587,-50.3308 1.80281,-3.1135 38.77107,-77.8426 82.15167,-166.0646 43.38061,-88.222 80.89793,-163.822 83.37182,-168 6.43804,-10.8728 12.539,-26.9191 15.80863,-41.5786 l 2.82912,-12.6844 v -476.00005 -476 h -52 -52 l -0.83612,474 c -0.45987,260.7 -0.97109,475.38615 -1.13605,477.08035 -0.24616,2.5283 -50.5437,99.1412 -56.88184,109.2602 l -1.88362,3.0073 -117.63118,-0.3406 -117.63119,-0.3406 -25.35851,-50 c -13.94717,-27.5 -27.74717,-54.2 -30.66666,-59.3333 l -5.30816,-9.3333 -0.66667,-472.00005 -0.66667,-472 h -50.66666 -50.66667 v 476 c 0,459.06965 0.0881,476.40315 2.47948,487.33335 3.46825,15.8529 9.13737,30.7427 16.75245,44 3.58048,6.2333 43.21583,84.8333 88.07855,174.6667 80.34905,160.8913 81.70708,163.4869 90.83023,173.6049 9.73894,10.8011 25.68762,22.4124 38.52596,28.0488 6.3107,2.7707 18.06117,6.2795 27.33333,8.1621 6.98699,1.4187 34.63352,0.6808 43.37289,-1.1574 z m 440.45719,-485.1836 c 9.1214,-4.4627 17.5105,-13.4577 19.6045,-21.02066 0.8814,-3.18314 1.6692,-12.38752 1.7506,-20.45419 l 0.1482,-14.66667 h -18 -18 l -0.6667,16.13572 c -0.6918,16.74319 -1.9379,20.53095 -6.75433,20.53095 -1.3353,0 -3.36183,-1.33351 -4.50342,-2.96335 -1.77694,-2.53696 -2.0756,-9.30481 -2.0756,-47.03665 0,-37.73184 0.29866,-44.49969 2.0756,-47.03665 2.19942,-3.1401 5.29563,-3.73904 8.59105,-1.6619 1.5627,0.98496 2.1458,5.28087 2.6667,19.64624 l 0.6667,18.38564 h 18 18 l -0.1292,-16.66666 c -0.1669,-21.53176 -1.6991,-26.96771 -9.8188,-34.83427 -8.7794,-8.50569 -16.9498,-11.17604 -34.05211,-11.12925 -10.93978,0.0299 -14.51694,0.57566 -19.9266,3.04 -9.78526,4.45762 -14.36126,8.46221 -18.77423,16.42985 l -3.96577,7.16033 v 44 c 0,49.9856 0.66884,55.04304 8.41294,63.61482 8.63551,9.5585 19.81586,13.2539 37.89507,12.5253 9.2495,-0.3727 13.1236,-1.1943 18.8554,-3.9986 z m -443.16341,-49.47485 0.66666,-50.66667 21.33334,-0.66666 21.33333,-0.66667 v -16.66667 -16.66666 h -66.66667 -66.66666 v 16.66666 16.66667 l 22,0.66667 22,0.66666 0.33542,49.33334 c 0.1845,27.13333 0.62139,50.09828 0.97088,51.03318 0.4871,1.303 5.70071,1.6143 22.33124,1.3333 l 21.69579,-0.3665 z M 930.17995,1002.06 v -13.33335 l -12,-0.66667 -12,-0.66666 v -15.33334 -15.33333 l 10,-0.66667 10,-0.66666 v -12.66667 -12.66667 l -10,-0.66666 -10,-0.66667 v -13.33333 -13.33334 l 10.66667,-0.66666 10.66667,-0.66667 v -13.33333 -13.33334 h -29.33334 -29.33333 l -0.34671,69.33334 c -0.19068,38.13333 -0.0552,70.09468 0.30114,71.02508 0.50281,1.3131 7.44496,1.6116 31.01336,1.3334 l 30.36554,-0.3585 z m 176.66665,-16.00002 0.6667,-29.33333 h 4 4 l 0.6667,29.33333 0.6666,29.33332 h 18 18 v -70.66665 -70.66667 h -18 -18 l -0.6666,24.66667 -0.6667,24.66667 h -4 -4 l -0.6667,-24.66667 -0.6666,-24.66667 h -18 -18 l -0.3468,69.33334 c -0.1906,38.13333 -0.053,70.10078 0.3065,71.03888 0.4952,1.2933 4.9299,1.6156 18.3467,1.3333 l 17.6936,-0.3722 z M 582.23315,719.3511 c 23.45967,-6.02881 35.77682,-19.27137 37.51494,-40.33346 1.22648,-14.86216 -2.924,-24.7713 -13.8736,-33.12284 -7.43863,-5.67363 -16.96267,-9.09452 -40.03642,-14.3805 -20.25546,-4.64032 -26.32478,-7.58858 -26.32478,-12.78765 0,-5.37763 6.25794,-8.66667 16.48974,-8.66667 10.57136,0 15.19264,2.3966 18.11695,9.39547 l 1.95395,4.67643 19.71968,-0.36928 c 22.71452,-0.42536 22.37538,-0.17815 18.50553,-13.48996 -5.62529,-19.35035 -26.47575,-30.26706 -58.1618,-30.4519 -29.8218,-0.17396 -49.83167,8.30534 -58.14579,24.6396 -7.0568,13.86406 -5.08754,33.15671 4.46348,43.72855 8.94706,9.90332 17.13766,13.50031 44.99868,19.76165 9.96596,2.2397 19.89767,4.99147 22.07044,6.11506 5.33939,2.7611 6.58436,7.99174 2.80235,11.77376 -2.36028,2.36028 -4.79576,2.95756 -13.71084,3.36241 -17.42833,0.79145 -22.88704,-1.92663 -25.05371,-12.47512 l -0.82158,-4 -19.84534,-0.37031 c -12.94666,-0.24157 -20.1494,0.12174 -20.72004,1.045 -1.58281,2.56106 1.24031,17.22059 4.58892,23.82876 6.15164,12.13967 20.05628,20.08494 40.74938,23.28464 9.44012,1.4597 37.33636,0.73382 44.71986,-1.16364 z m 325.28014,-10.62445 1.33333,-12 h 6.66667 6.66666 l 1.33334,12 1.33333,12 17.69359,0.37223 c 14.22186,0.29918 17.8347,0.004 18.41278,-1.50196 0.74318,-1.93671 -18.84477,-137.49562 -20.17997,-139.65603 -0.41275,-0.66783 -12.43387,-1.21424 -26.7136,-1.21424 -20.04811,0 -26.11441,0.39416 -26.62705,1.73008 -1.21202,3.15844 -19.02004,138.90055 -18.36206,139.96519 0.35532,0.57493 8.85035,0.87869 18.87784,0.67502 l 18.2318,-0.37029 z m 2.62126,-39.4068 c -1.18122,-1.91127 3.51372,-46.5932 4.89578,-46.5932 0.60434,0 1.38612,1.35 1.73726,3 1.27822,6.00612 3.66202,41.09291 2.92275,43.01939 -0.87303,2.2751 -8.23125,2.71694 -9.55579,0.57381 z m 129.37875,38.07347 v -13.33334 l -9.3333,-0.66666 -9.3334,-0.66667 -0.6666,-56.66667 -0.6667,-56.66666 h -18 -18.00001 l -0.34671,69.33333 c -0.19068,38.13333 -0.0548,70.09555 0.30191,71.02715 0.50188,1.31065 6.91432,1.61226 28.34671,1.33333 l 27.6981,-0.36048 z m 63.3333,-43.33334 0.6667,-56.66666 10,-0.66667 10,-0.66667 v -13.33333 -13.33333 h -39.3333 -39.3334 v 13.33333 13.33333 l 10,0.66667 10,0.66667 0.3345,55.33333 c 0.184,30.43333 0.6219,56.10083 0.9731,57.03889 0.4844,1.29384 4.9097,1.6157 18.3322,1.33334 l 17.6936,-0.37223 z M 930.97518,435.10205 c 8.67125,-3.83572 15.07837,-10.01305 18.70307,-18.03236 3.13604,-6.93816 3.16837,-7.47239 3.16837,-52.34304 0,-43.19567 -0.13147,-45.61627 -2.78912,-51.33333 -4.16249,-8.95446 -9.13985,-14.11136 -17.60576,-18.2409 -6.87431,-3.35317 -8.95045,-3.70502 -21.60512,-3.6616 -11.30464,0.0388 -15.18157,0.58631 -20.13724,2.84383 -8.86201,4.03705 -15.07543,10.03917 -18.68431,18.04896 -3.05886,6.78903 -3.17229,8.27368 -3.6032,47.15952 -0.27921,25.1966 0.0952,43.07351 1.00534,48 2.70124,14.62167 12.39034,25.43108 26.31585,29.35863 9.05184,2.55297 27.52544,1.60932 35.23212,-1.79971 z m -23.36665,-22.47064 c -1.82346,-1.82345 -2.09524,-8.03752 -2.09524,-47.90476 0,-39.86724 0.27178,-46.08131 2.09524,-47.90476 1.15237,-1.15239 2.60952,-2.09524 3.23809,-2.09524 0.62857,0 2.08572,0.94285 3.23809,2.09524 1.82188,1.82188 2.09524,7.9586 2.09524,47.03665 0,38.51755 -0.29668,45.365 -2.0756,47.90476 -2.46042,3.51275 -3.68724,3.6767 -6.49582,0.86811 z M 511.51329,396.45964 c 0,-21.41354 0.49197,-38.44156 1.09326,-37.84007 0.6013,0.60148 5.77672,18.12164 11.50095,38.93368 l 10.40768,37.84007 h 17.6852 17.68521 l 10.29544,-37.74827 c 5.6625,-20.76153 10.85091,-38.30372 11.52982,-38.98263 0.75694,-0.75694 1.2153,13.84335 1.18508,37.74826 l -0.0493,38.98264 h 21.33333 21.33334 v -68 -68 h -29.89584 -29.89584 l -9.54614,36.59177 c -5.25037,20.12547 -10.24724,36.82547 -11.10416,37.11111 -0.8569,0.28564 -1.55802,0.25397 -1.55802,-0.0704 0,-2.16826 -19.03103,-72.50556 -19.83935,-73.32484 -0.55657,-0.56411 -14.77041,-0.86411 -31.58631,-0.66667 l -30.57434,0.35903 -0.34695,66.66666 c -0.19083,36.66667 -0.0535,67.43278 0.30523,68.36914 0.4974,1.29844 5.32618,1.61486 20.34694,1.33333 l 19.69478,-0.36913 z M 1038.18,422.05998 v -13.33333 l -9.3334,-0.66667 -9.3333,-0.66666 -0.6667,-56.66667 -0.6666,-56.66667 h -18 -18.00005 l -0.3467,69.33334 c -0.19068,38.13333 -0.0548,70.09554 0.3019,71.02714 0.50188,1.31066 6.91432,1.61227 28.34675,1.33334 l 27.6981,-0.36048 z m 63.3333,-43.33333 0.6667,-56.66667 10,-0.66666 10,-0.66667 v -13.33333 -13.33334 h -39.3334 -39.3333 v 13.33334 13.33333 l 10,0.66667 10,0.66666 0.3345,55.33334 c 0.184,30.43333 0.6219,56.10082 0.9731,57.03889 0.4844,1.29384 4.9097,1.61569 18.3321,1.33333 l 17.6936,-0.37222 z m 106,43.33333 v -13.33333 l -12,-0.66667 -12,-0.66666 v -15.33334 -15.33333 l 10,-0.66667 10,-0.66666 v -12.66667 -12.66667 l -10,-0.66666 -10,-0.66667 v -13.33333 -13.33334 l 10.6667,-0.66666 10.6666,-0.66667 v -13.33333 -13.33334 h -29.3333 -29.3333 l -0.3468,69.33334 c -0.1906,38.13333 -0.055,70.09464 0.3012,71.02512 0.5028,1.31308 7.4449,1.61154 31.0133,1.33333 l 30.3656,-0.35845 z m 56.3604,-14.33333 c 0.1982,-15.21667 0.8897,-27.66667 1.5368,-27.66667 1.2249,0 3.2651,6.26354 11.5087,35.33334 2.7035,9.53333 5.5322,18.10214 6.2861,19.04181 1.0009,1.24767 5.3631,1.60729 16.1726,1.33333 l 14.8021,-0.37514 v -70.66667 -70.66667 h -14.6667 -14.6667 l -0.3598,28.33334 c -0.198,15.58333 -0.8981,28.33333 -1.5559,28.33333 -0.6577,0 -5.2263,-12.15 -10.1523,-27 -4.926,-14.85 -9.5659,-27.77 -10.311,-28.71111 -0.9803,-1.23832 -5.0754,-1.60672 -14.8211,-1.33333 l -13.4665,0.37777 -0.3468,69.33334 c -0.1906,38.13333 -0.052,70.10374 0.3089,71.04536 0.4905,1.28078 4.2721,1.61664 15.0134,1.33333 l 14.3578,-0.37869 z"
       id="path4582"
       inkscape:connector-curvature="0" />
  </g>
</svg>
