<?xml version="1.0" encoding="UTF-8" standalone="no"?>
<!-- Created with Inkscape (http://www.inkscape.org/) -->

<svg
   xmlns:dc="http://purl.org/dc/elements/1.1/"
   xmlns:cc="http://creativecommons.org/ns#"
   xmlns:rdf="http://www.w3.org/1999/02/22-rdf-syntax-ns#"
   xmlns:svg="http://www.w3.org/2000/svg"
   xmlns="http://www.w3.org/2000/svg"
   xmlns:sodipodi="http://sodipodi.sourceforge.net/DTD/sodipodi-0.dtd"
   xmlns:inkscape="http://www.inkscape.org/namespaces/inkscape"
   width="210mm"
   height="297mm"
   viewBox="0 0 210 297"
   version="1.1"
   id="svg4594"
   inkscape:version="0.92.1 r15371"
   sodipodi:docname="MST-3.svg">
  <defs
     id="defs4588" />
  <sodipodi:namedview
     id="base"
     pagecolor="#ffffff"
     bordercolor="#666666"
     borderopacity="1.0"
     inkscape:pageopacity="0.0"
     inkscape:pageshadow="2"
     inkscape:zoom="0.98994949"
     inkscape:cx="38.332647"
     inkscape:cy="560"
     inkscape:document-units="mm"
     inkscape:current-layer="layer1"
     showgrid="false"
     inkscape:measure-start="0,0"
     inkscape:measure-end="0,0"
     inkscape:window-width="3840"
     inkscape:window-height="2104"
     inkscape:window-x="-16"
     inkscape:window-y="-16"
     inkscape:window-maximized="1" />
  <metadata
     id="metadata4591">
    <rdf:RDF>
      <cc:Work
         rdf:about="">
        <dc:format>image/svg+xml</dc:format>
        <dc:type
           rdf:resource="http://purl.org/dc/dcmitype/StillImage" />
        <dc:title></dc:title>
      </cc:Work>
    </rdf:RDF>
  </metadata>
  <g
     inkscape:label="Layer 1"
     inkscape:groupmode="layer"
     id="layer1">
    <g
       id="g4607"
       transform="translate(-4.5435786,-0.53991143)">
      <path
         style="fill:#fafafa;stroke-width:0.26458335"
         d="M 42.522312,149.58929 V 1.554907 h 64.822918 64.82291 V 149.58929 297.62367 H 107.34523 42.522312 Z"
         id="path4613"
         inkscape:connector-curvature="0" />
      <path
         style="fill:#f3ef00;stroke-width:0.26458335"
         d="M 42.522312,149.58929 V 1.554907 h 64.822918 64.82291 V 149.58929 297.62367 H 107.34523 42.522312 Z m 70.908328,139.04966 c 4.82646,-1.39507 9.52554,-4.77311 12.34519,-8.87466 0.30013,-0.43656 7.36097,-14.66453 15.69078,-31.61771 8.3298,-16.95318 16.07134,-32.60989 17.20343,-34.79271 2.12449,-4.09628 2.86075,-6.00175 3.63227,-9.40026 0.41651,-1.83474 0.45497,-8.72777 0.53518,-95.90391 0.0475,-51.659895 0.0206,-94.196371 -0.0598,-94.525498 l -0.1462,-0.598415 -10.24678,0.06925 -10.24679,0.06925 -0.13229,94.588553 -0.13229,94.58854 -5.78443,10.84792 c -3.18144,5.96635 -5.91988,10.93539 -6.08542,11.0423 -0.37268,0.2407 -45.724827,0.26907 -46.35044,0.029 -0.26471,-0.10158 -2.39378,-4.13195 -5.136467,-9.72344 -2.576394,-5.25247 -5.123024,-10.23181 -5.659176,-11.0652 -0.536149,-0.83341 -1.121743,-1.84543 -1.301316,-2.24897 -0.256127,-0.57557 -0.355012,-20.92098 -0.45879,-94.39619 L 70.96502,13.064282 60.982837,12.99496 51.000655,12.925639 50.85426,13.524127 c -0.08052,0.329169 -0.109306,42.925209 -0.06397,94.657863 0.07659,87.4074 0.114188,94.19036 0.531652,95.91147 0.749084,3.08829 1.53621,5.3298 2.544275,7.24536 0.527573,1.00251 8.503466,16.86502 17.724203,35.25001 14.927847,29.76424 16.927475,33.61234 18.247852,35.11626 3.2155,3.66252 7.805809,6.36625 12.452148,7.33444 2.63556,0.54919 8.59575,0.33488 11.14022,-0.40058 z"
         id="path4611"
         inkscape:connector-curvature="0" />
      <path
         style="fill:#020201;stroke-width:0.26458335"
         d="M 42.522312,149.58929 V 1.554907 h 64.822918 64.82291 V 149.58929 297.62367 H 107.34523 42.522312 Z m 71.702078,138.80812 c 3.53601,-1.19587 6.29318,-2.91119 8.98604,-5.59041 2.72999,-2.71619 0.9445,0.68731 20.4039,-38.89375 8.04858,-16.3711 15.02112,-30.42047 15.49452,-31.22084 1.20034,-2.02938 2.40265,-5.15333 3.08647,-8.01954 l 0.58011,-2.4315 V 107.65283 13.064282 h -10.31875 -10.31875 l -0.13229,94.588548 -0.13229,94.58854 -5.82083,10.84792 -5.82084,10.84792 -23.41651,0.0676 -23.416517,0.0676 -5.096013,-10.12173 c -2.802805,-5.56695 -5.540843,-10.89563 -6.084525,-11.84152 L 71.229603,200.38929 71.097311,106.72679 70.96502,13.064282 H 60.910853 50.856687 l -0.07869,92.736458 c -0.05511,64.94555 0.0068,93.58852 0.206715,95.5797 0.371644,3.70239 1.29603,6.87651 2.909073,9.98906 0.716437,1.38245 8.761311,17.39635 17.877497,35.58646 15.346519,30.62187 16.693393,33.20669 18.173986,34.87803 3.027693,3.41781 7.161982,5.96231 11.446832,7.04509 1.77149,0.44768 2.78546,0.52134 6.21771,0.45167 3.8019,-0.0772 4.28439,-0.14525 6.61458,-0.93334 z m -3.11683,-95.35031 c 0.032,-0.0364 0.12129,-4.59052 0.19844,-10.12031 l 0.14027,-10.05417 4.29948,-0.0727 4.29948,-0.0727 v -3.43303 -3.43303 h -13.20086 c -11.793383,0 -13.217984,0.0446 -13.36146,0.41852 -0.233706,0.60903 -0.189129,5.74153 0.05318,6.12292 0.144751,0.22784 1.456315,0.3454 4.427718,0.39688 l 4.222042,0.0731 0.0666,9.78958 c 0.0366,5.38428 0.12217,9.93842 0.19014,10.12032 0.0918,0.24569 1.21419,0.33073 4.36521,0.33073 2.3329,0 4.26781,-0.0298 4.2998,-0.0661 z m 0.50103,-58.67104 c 2.09811,-0.38904 5.06751,-1.93837 6.15903,-3.21355 1.72173,-2.01146 2.40357,-5.36209 1.63156,-8.0177 -0.88385,-3.04034 -3.93482,-5.01547 -9.40812,-6.09062 -3.702,-0.72719 -5.21899,-1.2201 -5.8622,-1.90477 -0.56629,-0.60278 -0.58016,-0.6936 -0.20766,-1.35929 0.72453,-1.29477 3.53636,-1.78047 5.27611,-0.91137 0.57407,0.28678 1.10282,0.83972 1.39115,1.4548 l 0.4651,0.99218 h 3.84268 c 4.41166,0 4.35935,0.0306 3.84849,-2.25212 -0.91602,-4.09323 -5.22561,-6.49323 -11.66409,-6.4957 -7.593882,-0.003 -11.871607,2.68446 -12.345153,7.75557 -0.241419,2.58531 0.407998,4.49679 2.076416,6.11167 1.883174,1.82275 3.238057,2.35654 9.812277,3.86579 1.27691,0.29314 2.67417,0.71528 3.10502,0.93808 1.05987,0.54808 1.30581,1.58568 0.55411,2.33777 -0.48459,0.48482 -0.939,0.58556 -3.00391,0.6659 -2.84308,0.11062 -3.93628,-0.29546 -4.43484,-1.64739 -0.62046,-1.6825 -0.46514,-1.61644 -3.994291,-1.69875 -1.803451,-0.0421 -3.562692,-0.006 -3.909425,0.08 -0.6003,0.149 -0.623996,0.23655 -0.495901,1.83234 0.325811,4.05894 3.281315,6.65207 8.602717,7.54793 1.83678,0.30922 6.91355,0.3147 8.56093,0.009 z M 98.197116,69.866635 c -0.01098,-4.411311 0.07679,-7.847629 0.195077,-7.636267 0.118285,0.211365 1.124363,3.701556 2.235727,7.755983 1.11137,4.054425 2.13949,7.520512 2.28472,7.702413 0.1843,0.230851 1.20331,0.330729 3.37425,0.330729 2.16893,0 3.19127,-0.100092 3.37806,-0.330729 0.14731,-0.181901 1.18701,-3.724011 2.31044,-7.871355 1.12343,-4.147344 2.13491,-7.709778 2.24774,-7.916524 0.11283,-0.206743 0.18904,3.305601 0.16935,7.805209 l -0.0358,8.181107 h 4.23333 4.23333 V 64.393451 50.8997 l -5.86481,-0.07115 -5.86481,-0.07115 -0.27425,0.864899 c -0.15083,0.475695 -0.88462,3.246149 -1.63063,6.156566 -1.93087,7.532921 -2.12326,8.160573 -2.41264,7.871196 -0.13832,-0.138324 -1.10868,-3.513744 -2.15634,-7.500933 l -1.90485,-7.24943 -6.066659,-0.07123 c -4.676854,-0.05492 -6.115484,0.0057 -6.2798,0.264583 -0.246862,0.388937 -0.30262,25.877365 -0.058,26.514825 0.14151,0.368769 0.678722,0.415685 4.034896,0.352367 l 3.87165,-0.07304 -0.01998,-8.020566 z"
         id="path4609"
         inkscape:connector-curvature="0" />
    </g>
  </g>
</svg>
