<?xml version="1.0" encoding="UTF-8" standalone="no"?>
<!-- Created with Inkscape (http://www.inkscape.org/) -->

<svg
   xmlns:dc="http://purl.org/dc/elements/1.1/"
   xmlns:cc="http://creativecommons.org/ns#"
   xmlns:rdf="http://www.w3.org/1999/02/22-rdf-syntax-ns#"
   xmlns:svg="http://www.w3.org/2000/svg"
   xmlns="http://www.w3.org/2000/svg"
   xmlns:sodipodi="http://sodipodi.sourceforge.net/DTD/sodipodi-0.dtd"
   xmlns:inkscape="http://www.inkscape.org/namespaces/inkscape"
   version="1.1"
   id="svg4562"
   width="1600"
   height="1600"
   viewBox="0 0 1600 1600"
   sodipodi:docname="MST-2.svg"
   inkscape:version="0.92.1 r15371">
  <metadata
     id="metadata4568">
    <rdf:RDF>
      <cc:Work
         rdf:about="">
        <dc:format>image/svg+xml</dc:format>
        <dc:type
           rdf:resource="http://purl.org/dc/dcmitype/StillImage" />
        <dc:title></dc:title>
      </cc:Work>
    </rdf:RDF>
  </metadata>
  <defs
     id="defs4566" />
  <sodipodi:namedview
     pagecolor="#ffffff"
     bordercolor="#666666"
     borderopacity="1"
     objecttolerance="10"
     gridtolerance="10"
     guidetolerance="10"
     inkscape:pageopacity="0"
     inkscape:pageshadow="2"
     inkscape:window-width="3840"
     inkscape:window-height="2104"
     id="namedview4564"
     showgrid="false"
     inkscape:zoom="0.834386"
     inkscape:cx="800"
     inkscape:cy="800"
     inkscape:window-x="-16"
     inkscape:window-y="-16"
     inkscape:window-maximized="1"
     inkscape:current-layer="svg4562" />
  <g
     id="g4572"
     transform="translate(2.396975,3.9924308)">
    <path
       style="fill:#fcfcfd;stroke-width:1.33333337"
       d="M 0,800 V 0 h 800 800 v 800 800 H 800 0 Z"
       id="path4578"
       inkscape:connector-curvature="0" />
    <path
       style="fill:#0d12fe;stroke-width:1.33333337"
       d="m 536.66667,1501.8159 c -9.27216,-1.8827 -21.02263,-5.3915 -27.33334,-8.1622 -12.83833,-5.6364 -28.78701,-17.2477 -38.52596,-28.0488 -9.12314,-10.118 -10.48117,-12.7136 -90.83022,-173.6049 -44.86272,-89.8333 -84.49807,-168.4333 -88.07855,-174.6667 -7.61508,-13.2572 -13.2842,-28.1471 -16.75245,-44 -2.3913,-10.9302 -2.47948,-28.2637 -2.47948,-487.3333 V 110 H 323.33333 374 l 0.66667,472 0.66666,472 5.30816,9.3333 c 2.9195,5.1334 16.7195,31.8334 30.66667,59.3334 l 25.35851,50 117.63118,0.3405 117.63119,0.3406 1.88361,-3.0072 c 6.33815,-10.1191 56.63568,-106.7319 56.88184,-109.2602 0.16496,-1.6942 0.67619,-216.3804 1.13606,-477.0804 l 0.83612,-474 h 52 52 v 476 476 l -2.82912,12.6845 c -3.26963,14.6595 -9.37059,30.7057 -15.80863,41.5785 -2.47389,4.178 -39.99121,79.778 -83.37183,168 -43.3806,88.2221 -80.34885,162.9511 -82.15166,166.0646 -14.00388,24.1855 -42.60334,44.0489 -72.46587,50.3308 -8.73937,1.8383 -36.38591,2.5761 -43.37289,1.1575 z m 446.66666,-483.6055 c -9.26382,-2.4071 -14.09825,-5.1868 -19.58705,-11.2622 -7.74411,-8.57183 -8.41295,-13.62927 -8.41295,-63.61487 v -44 l 3.96584,-7.16033 c 4.41298,-7.96764 8.98898,-11.97223 18.77423,-16.42985 5.40967,-2.46434 8.98683,-3.01007 19.9266,-3.04 17.1023,-0.0468 25.2727,2.62356 34.0521,11.12925 8.1197,7.86656 9.6519,13.30251 9.8188,34.83427 l 0.1292,16.66666 h -18 -18 l -0.6667,-18.38564 c -0.5209,-14.36537 -1.104,-18.66128 -2.6667,-19.64624 -3.29541,-2.07714 -6.39162,-1.4782 -8.59103,1.6619 C 992.29865,901.50031 992,908.26816 992,946 c 0,37.73184 0.29865,44.49969 2.0756,47.03665 1.14159,1.62984 3.16812,2.96335 4.50341,2.96335 4.81649,0 6.06259,-3.78776 6.75429,-20.53095 L 1006,959.33333 h 18 18 L 1041.8519,974 c -0.1858,18.39624 -1.892,24.65664 -8.7472,32.0936 -8.2225,8.9204 -17.3741,12.8121 -31.4633,13.3799 -6.82739,0.2751 -14.39824,-0.2472 -18.30807,-1.2631 z m -450.69369,-2.5106 c -0.34949,-0.9349 -0.78639,-23.8998 -0.97088,-51.03313 l -0.33543,-49.33334 -22,-0.66666 -22,-0.66667 V 897.33333 880.66667 H 554 620.66667 V 897.33333 914 L 599.33333,914.66667 578,915.33333 577.33333,966 l -0.66666,50.6667 -21.69579,0.3665 c -16.63053,0.2809 -21.84415,-0.03 -22.33124,-1.3334 z m 335.98145,-0.01 c -0.3563,-0.9305 -0.49181,-32.8918 -0.30113,-71.02513 l 0.34671,-69.33334 H 898 927.33333 V 888.66667 902 L 916.66667,902.66667 906,903.33333 V 916.66667 930 l 10,0.66667 10,0.66666 V 944 956.66667 L 916,957.33333 906,958 v 15.33333 15.33334 l 12,0.66666 L 930,990 v 13.3333 13.3334 l -30.36555,0.3584 c -23.5684,0.2782 -30.51054,-0.02 -31.01336,-1.3333 z m 201.33861,0.014 c -0.3592,-0.9381 -0.4971,-32.9056 -0.3064,-71.03893 L 1070,875.33333 h 18 18 l 0.6667,24.66667 0.6666,24.66667 h 4 4 L 1116,900 l 0.6667,-24.66667 h 18 18 V 946 v 70.6667 h -18 -18 L 1116,987.33333 1115.3333,958 h -4 -4 l -0.6666,29.33333 -0.6667,29.33337 -17.6936,0.3722 c -13.4167,0.2822 -17.8515,-0.04 -18.3467,-1.3333 z M 537.33333,721.78809 c -20.69309,-3.1997 -34.59773,-11.14497 -40.74937,-23.28464 -3.34861,-6.60817 -6.17173,-21.2677 -4.58892,-23.82876 0.57064,-0.9233 7.77337,-1.28657 20.72004,-1.045 L 532.56041,674 l 0.82159,4 c 2.16667,10.54849 7.62537,13.26657 25.05371,12.47512 8.91508,-0.40485 11.35056,-1.00213 13.71084,-3.36241 3.78201,-3.78202 2.53704,-9.01266 -2.80235,-11.77376 -2.17277,-1.12359 -12.10448,-3.87536 -22.07044,-6.11506 -9.96597,-2.2397 -20.60989,-4.95069 -23.65316,-6.02442 -21.02176,-7.41691 -31.71361,-22.7212 -29.84596,-42.72143 2.41159,-25.82511 24.16955,-39.60568 62.18275,-39.38395 31.68605,0.18484 52.5365,11.10155 58.1618,30.4519 3.86985,13.31181 4.20898,13.0646 -18.50554,13.48996 l -19.71968,0.36928 -1.95394,-4.67643 c -2.92431,-6.99887 -7.54559,-9.39547 -18.11695,-9.39547 -10.2318,0 -16.48975,3.28904 -16.48975,8.66667 0,5.19907 6.06932,8.14733 26.32479,12.78765 23.07375,5.28598 32.59779,8.70687 40.03641,14.3805 10.9496,8.35154 15.10008,18.26068 13.8736,33.12284 -1.73812,21.06209 -14.05526,34.30465 -37.51493,40.33346 -7.38351,1.89746 -35.27975,2.62334 -44.71987,1.16364 z m 331.55703,-0.0928 C 868.23237,720.63063 886.0404,584.88852 887.25241,581.73008 887.76505,580.39416 893.83136,580 913.87947,580 c 14.27973,0 26.30085,0.54641 26.7136,1.21424 1.3352,2.16041 20.92314,137.71932 20.17997,139.65603 -0.57808,1.50644 -4.19092,1.80114 -18.41279,1.50196 L 924.66667,722 923.33333,710 922,698 h -6.66667 -6.66666 l -1.33334,12 -1.33333,12 -18.2318,0.37029 c -10.02749,0.20367 -18.52252,-0.10013 -18.87784,-0.67502 z m 50.62003,-51.67588 c 0.73926,-1.92648 -1.64454,-37.01326 -2.92275,-43.01938 -0.35115,-1.65 -1.13292,-3 -1.73727,-3 -1.38205,0 -6.077,44.68193 -4.89577,46.5932 1.32453,2.14313 8.68276,1.70129 9.55579,-0.57382 z m 63.77814,51.00776 C 982.9318,720.09555 982.79595,688.13333 982.98663,650 l 0.3467,-69.33333 h 17.99997 18 L 1020,637.33333 1020.6667,694 l 9.3333,0.66667 9.3333,0.66666 V 708.66667 722 l -27.6981,0.36048 c -21.43235,0.27893 -27.84479,-0.0227 -28.34667,-1.33333 z m 82.68577,0.012 c -0.3512,-0.93834 -0.7891,-26.60584 -0.9731,-57.03917 l -0.3345,-55.33333 -10,-0.66667 -10,-0.66667 V 594 580.66667 H 1084 1123.3333 V 594 607.33333 l -10,0.66667 -10,0.66667 -0.6666,56.66666 L 1102,722 l -17.6936,0.37223 c -13.4224,0.28236 -17.8477,-0.0395 -18.3321,-1.33334 z M 895.56311,438.17511 c -13.92551,-3.92755 -23.61462,-14.73696 -26.31586,-29.35863 -0.91012,-4.92649 -1.28454,-22.8034 -1.00533,-48 0.43091,-38.88584 0.54433,-40.37049 3.6032,-47.15952 3.60888,-8.00979 9.82229,-14.01191 18.68431,-18.04896 4.95566,-2.25752 8.8326,-2.80504 20.13724,-2.84383 12.65466,-0.0435 14.73081,0.30843 21.60512,3.6616 8.4659,4.12954 13.44326,9.28644 17.60576,18.2409 2.6576,5.71706 2.78912,8.13766 2.78912,51.33333 0,44.87065 -0.0324,45.40488 -3.16838,52.34304 -3.62469,8.01931 -10.03181,14.19664 -18.70306,18.03236 -7.70668,3.40903 -26.18028,4.35268 -35.23212,1.79971 z M 913.9244,413.03665 C 915.70332,410.49689 916,403.64944 916,365.13189 916,326.05384 915.72664,319.91712 913.90476,318.09524 912.75239,316.94285 911.29524,316 910.66667,316 c -0.62858,0 -2.08572,0.94285 -3.2381,2.09524 -1.82345,1.82345 -2.09524,8.03752 -2.09524,47.90476 0,39.86724 0.27179,46.08131 2.09524,47.90476 2.80859,2.80859 4.0354,2.64464 6.49583,-0.86811 z M 471.29161,435.70247 C 470.93291,434.76611 470.79556,404 470.98639,367.33333 l 0.34694,-66.66666 30.57435,-0.35899 c 16.81589,-0.19744 31.02973,0.10253 31.58631,0.66667 0.80832,0.81928 19.83934,71.15658 19.83934,73.32484 0,0.32433 0.70112,0.356 1.55803,0.0704 0.85692,-0.28564 5.85379,-16.98564 11.10416,-37.11111 l 9.54613,-36.59177 h 29.89584 29.89584 v 68 68 H 614 592.66667 l 0.0493,-38.98264 c 0.0303,-23.90491 -0.42813,-38.5052 -1.18508,-37.74826 -0.67891,0.67891 -5.86732,18.2211 -11.52981,38.98263 l -10.29544,37.74827 h -17.68522 -17.6852 l -10.40768,-37.84007 c -5.72422,-20.81204 -10.89965,-38.3322 -11.50094,-38.93368 -0.6013,-0.60149 -1.09327,16.42653 -1.09327,37.84007 v 38.93368 l -19.69477,0.36913 c -15.02076,0.28153 -19.84955,-0.0349 -20.34695,-1.33333 z m 510.66359,-0.008 c -0.35673,-0.93226 -0.49259,-32.89447 -0.30191,-71.0278 L 982,295.33333 h 18 18 l 0.6667,56.66667 0.6666,56.66667 9.3334,0.66666 L 1038,410 v 13.33333 13.33334 l -27.6981,0.36048 c -21.43238,0.27893 -27.84482,-0.0227 -28.3467,-1.33334 z m 82.6857,0.012 c -0.3512,-0.93898 -0.7891,-26.60647 -0.973,-57.0398 l -0.3346,-55.33334 -10,-0.66666 -10,-0.66667 V 308.66667 295.33333 H 1082.6667 1122 V 308.66667 322 l -10,0.66667 -10,0.66666 -0.6667,56.66667 -0.6666,56.66667 -17.6936,0.37222 c -13.4224,0.28236 -17.8478,-0.0395 -18.3322,-1.33333 z m 81.3135,-0.0137 c -0.3563,-0.93142 -0.4918,-32.89273 -0.3011,-71.02606 L 1146,295.33333 h 29.3333 29.3334 V 308.66667 322 l -10.6667,0.66667 -10.6667,0.66666 V 336.66667 350 l 10,0.66667 10,0.66666 V 364 376.66667 l -10,0.66666 -10,0.66667 v 15.33333 15.33334 l 12,0.66666 12,0.66667 v 13.33333 13.33334 l -30.3655,0.35845 c -23.5684,0.27821 -30.5106,-0.0203 -31.0134,-1.33333 z m 88.0078,0.0203 c -0.3606,-0.94259 -0.4996,-32.913 -0.3089,-71.04633 L 1234,295.3334 l 13.4665,-0.37777 c 9.7457,-0.27339 13.8408,0.0951 14.8212,1.33333 0.745,0.94111 5.3849,13.86111 10.3109,28.71111 4.9261,14.85 9.4946,27 10.1524,27 0.6578,0 1.3579,-12.75 1.5558,-28.33333 l 0.3599,-28.33334 H 1299.3333 1314 V 366 436.66667 l -14.802,0.37514 c -10.8096,0.27396 -15.1718,-0.0857 -16.1727,-1.33333 -0.7538,-0.93967 -3.5825,-9.50848 -6.286,-19.04181 -8.2436,-29.0698 -10.2838,-35.33334 -11.5088,-35.33334 -0.647,0 -1.3386,12.45 -1.5368,27.66667 l -0.3604,27.66667 -14.3577,0.37869 c -10.7413,0.28331 -14.5229,-0.0525 -15.0134,-1.33333 z"
       id="path4576"
       inkscape:connector-curvature="0" />
    <path
       style="fill:#040205;stroke-width:1.33333337"
       d="m 536.66667,1501.8856 c -11.9183,-2.7317 -21.11292,-5.5009 -27.33334,-8.2319 -12.83833,-5.6364 -28.78701,-17.2477 -38.52596,-28.0488 -9.12314,-10.118 -10.48117,-12.7136 -90.83022,-173.6049 -44.86272,-89.8333 -84.49807,-168.4333 -88.07855,-174.6667 -7.61508,-13.2572 -13.2842,-28.1471 -16.75245,-44 -2.3913,-10.9302 -2.47948,-28.2637 -2.47948,-487.3333 V 110 H 323.33333 374 l 0.66667,472 c 0.57744,408.83149 0.92562,472.5353 2.60165,476 1.06425,2.2 3.16425,5.7722 4.66667,7.9382 1.50242,2.1659 14.43168,27.0659 28.73168,55.3333 l 26,51.3952 117.63118,0.3405 117.63119,0.3406 1.88361,-3.0072 c 1.03598,-1.654 14.40195,-26.4073 29.70215,-55.0073 l 27.81853,-52 L 732,586.66667 732.66667,110 h 52 52 v 476 476 l -2.82912,12.6845 c -3.26963,14.6595 -9.37059,30.7057 -15.80863,41.5785 -2.47389,4.178 -39.99121,79.778 -83.37183,168 -43.3806,88.2221 -80.34885,162.9511 -82.15166,166.0646 -12.54516,21.6661 -39.56716,41.6297 -66.50543,49.1337 -7.72619,2.1523 -42.96536,3.884 -49.33333,2.4243 z"
       id="path4574"
       inkscape:connector-curvature="0" />
  </g>
</svg>
